<svg width="16" height="16" viewBox="0 0 16 16" fill="none" xmlns="http://www.w3.org/2000/svg">
  <g transform="translate(8,8) scale(0.9) translate(-8,-8)">
    <path d="M4 1.5A1.5 1.5 0 0 1 5.5 0h5A1.5 1.5 0 0 1 12 1.5v1A1.5 1.5 0 0 1 10.5 4h-5A1.5 1.5 0 0 1 4 2.5v-1z" fill="#424242"/>
    <path d="M2 3a1 1 0 0 0-1 1v11a1 1 0 0 0 1 1h12a1 1 0 0 0 1-1V4a1 1 0 0 0-1-1h-1v1.5A2.5 2.5 0 0 1 10.5 5h-5A2.5 2.5 0 0 1 3 2.5V3H2z" fill="#424242"/>
    <path d="M10.854 8.146a.5.5 0 0 1 0 .708l-3.5 3.5a.5.5 0 0 1-.708 0l-1.5-1.5a.5.5 0 1 1 .708-.708L7 11.293l3.146-3.147a.5.5 0 0 1 .708 0z" fill="#ffffff"/>
  </g>
</svg>
